<svg xmlns="http://www.w3.org/2000/svg" x="0px" y="0px" width="100" height="100" viewBox="0 0 100 100">
<path fill="#444445" d="M70,82H31c-7.2,0-13-5.8-13-13V30c0-7.2,5.8-13,13-13h39c7.2,0,13,5.8,13,13v39C83,76.2,77.2,82,70,82z"></path><path fill="#1f212b" d="M70,19c6.1,0,11,4.9,11,11v39c0,6.1-4.9,11-11,11H31c-6.1,0-11-4.9-11-11V30c0-6.1,4.9-11,11-11H70 M70,17H31	c-7.2,0-13,5.8-13,13v39c0,7.2,5.8,13,13,13h39c7.2,0,13-5.8,13-13V30C83,22.8,77.2,17,70,17L70,17z"></path><circle cx="50.5" cy="49.5" r="13" fill="#757373"></circle><path fill="#e3e3e4" d="M50.5,62.5c-0.3,0-0.5-0.2-0.5-0.5V37c0-0.3,0.2-0.5,0.5-0.5S51,36.7,51,37v25C51,62.3,50.8,62.5,50.5,62.5z"></path><path fill="#e3e3e4" d="M63,50H38c-0.3,0-0.5-0.2-0.5-0.5S37.7,49,38,49h25c0.3,0,0.5,0.2,0.5,0.5S63.3,50,63,50z"></path><path fill="#fff" d="M35.5,40l-1.4-5.5h0.7l0.6,2.8c0.2,0.7,0.3,1.3,0.4,1.9h0c0.1-0.5,0.3-1.2,0.4-1.9l0.7-2.8h0.7l0.7,2.8	c0.2,0.6,0.3,1.3,0.4,1.8h0c0.1-0.6,0.3-1.2,0.4-1.9l0.7-2.8h0.7L39.2,40h-0.7l-0.7-2.8c-0.2-0.7-0.3-1.3-0.4-1.9h0	c-0.1,0.5-0.2,1.2-0.4,1.9L36.2,40H35.5z"></path><path fill="#fff" d="M62,40v-5.5h0.8l1.7,2.8c0.4,0.6,0.7,1.2,0.9,1.8l0,0c-0.1-0.7-0.1-1.4-0.1-2.2v-2.4H66V40h-0.7l-1.7-2.7	c-0.4-0.6-0.7-1.2-1-1.8l0,0c0,0.7,0.1,1.3,0.1,2.2V40H62z"></path><path fill="#fff" d="M36,63.6c0.3,0.2,0.8,0.3,1.2,0.3c0.7,0,1.1-0.4,1.1-0.9c0-0.5-0.3-0.8-1-1.1c-0.9-0.3-1.4-0.8-1.4-1.5	c0-0.8,0.7-1.4,1.7-1.4c0.6,0,1,0.1,1.2,0.3l-0.2,0.6c-0.2-0.1-0.5-0.3-1-0.3c-0.7,0-1,0.4-1,0.8c0,0.5,0.3,0.7,1.1,1	c0.9,0.3,1.4,0.8,1.4,1.6c0,0.8-0.6,1.5-1.9,1.5c-0.5,0-1.1-0.2-1.4-0.3L36,63.6z"></path><path fill="#fff" d="M64.8,62h-2.1v1.9H65v0.6l-3,0V59l2.9,0v0.6h-2.2v1.9h2.1V62z"></path><polygon fill="#f15b6c" points="70,25.8 74.2,30 75.7,24.3"></polygon><path fill="#f15b6c" d="M74.2,30.5c-0.1,0-0.3-0.1-0.4-0.1l-4.2-4.2c-0.1-0.1-0.2-0.3-0.1-0.5c0-0.2,0.2-0.3,0.4-0.4l5.7-1.4	c0.2,0,0.4,0,0.5,0.1c0.1,0.1,0.2,0.3,0.1,0.5l-1.4,5.7c0,0.2-0.2,0.3-0.4,0.4C74.3,30.5,74.3,30.5,74.2,30.5z M71,26l3,3l1-4L71,26	z"></path><path fill="#757373" d="M50.5,78c-0.3,0-0.5-0.2-0.5-0.5V73c0-0.3,0.2-0.5,0.5-0.5S51,72.7,51,73v4.5C51,77.8,50.8,78,50.5,78z"></path><path fill="#757373" d="M50.5,26.5c-0.3,0-0.5-0.2-0.5-0.5v-4.5c0-0.3,0.2-0.5,0.5-0.5s0.5,0.2,0.5,0.5V26C51,26.3,50.8,26.5,50.5,26.5	z"></path><path fill="#757373" d="M61.4,75.8c-0.2,0-0.4-0.1-0.5-0.3c-0.1-0.1-0.5-1.1-1.2-2.7c-0.1-0.3,0-0.5,0.3-0.7c0.2-0.1,0.5,0,0.7,0.3	c0.7,1.6,1.1,2.6,1.2,2.8c0.1,0.3,0,0.5-0.3,0.7C61.6,75.8,61.5,75.8,61.4,75.8z"></path><path fill="#757373" d="M40.7,27c-0.2,0-0.4-0.1-0.5-0.3c-0.7-1.7-1.2-2.7-1.2-2.7c-0.1-0.3,0-0.5,0.3-0.7c0.3-0.1,0.5,0,0.7,0.3	c0,0,0.4,1,1.2,2.8c0.1,0.3,0,0.5-0.3,0.7C40.9,27,40.8,27,40.7,27z"></path><path fill="#757373" d="M76.5,60.5c-0.1,0-0.1,0-0.2,0l-0.2-0.1c-0.4-0.2-1.3-0.5-2.6-1c-0.3-0.1-0.4-0.4-0.3-0.6	c0.1-0.3,0.4-0.4,0.6-0.3c1.3,0.5,2.2,0.9,2.6,1l0.2,0.1c0.3,0.1,0.4,0.4,0.3,0.7C76.8,60.4,76.7,60.5,76.5,60.5z"></path><path fill="#757373" d="M27.3,40.6c-0.1,0-0.1,0-0.2,0c-1.8-0.7-2.8-1.1-2.8-1.1c-0.3-0.1-0.4-0.4-0.3-0.7c0.1-0.3,0.4-0.4,0.7-0.3	c0,0,1,0.4,2.8,1.1c0.3,0.1,0.4,0.4,0.3,0.7C27.7,40.5,27.5,40.6,27.3,40.6z"></path><path fill="#757373" d="M73.5,40.2c-0.2,0-0.4-0.1-0.5-0.3c-0.1-0.3,0-0.5,0.3-0.7c1.6-0.7,2.6-1.1,2.8-1.2c0.3-0.1,0.5,0,0.7,0.3	c0.1,0.3,0,0.5-0.3,0.7c-0.1,0.1-1.1,0.5-2.7,1.2C73.7,40.2,73.6,40.2,73.5,40.2z"></path><path fill="#757373" d="M24.7,60.9c-0.2,0-0.4-0.1-0.5-0.3c-0.1-0.3,0-0.5,0.3-0.7c0,0,1-0.4,2.8-1.2c0.3-0.1,0.5,0,0.7,0.3	c0.1,0.3,0,0.5-0.3,0.7c-1.7,0.7-2.7,1.2-2.7,1.2C24.9,60.9,24.8,60.9,24.7,60.9z"></path><path fill="#757373" d="M59.9,26.8c-0.1,0-0.1,0-0.2,0c-0.3-0.1-0.4-0.4-0.3-0.6c0.5-1.3,0.9-2.2,1-2.6l0.1-0.2	c0.1-0.3,0.4-0.4,0.7-0.3c0.3,0.1,0.4,0.4,0.3,0.6l-0.1,0.2c-0.2,0.4-0.5,1.3-1,2.6C60.3,26.7,60.1,26.8,59.9,26.8z"></path><path fill="#757373" d="M40,76c-0.1,0-0.1,0-0.2,0c-0.3-0.1-0.4-0.4-0.3-0.7c0,0,0.4-1,1.1-2.8c0.1-0.3,0.4-0.4,0.7-0.3	c0.3,0.1,0.4,0.4,0.3,0.7c-0.7,1.8-1.1,2.8-1.1,2.8C40.4,75.8,40.2,76,40,76z"></path><path fill="#757373" d="M27,50h-4.5c-0.3,0-0.5-0.2-0.5-0.5s0.2-0.5,0.5-0.5H27c0.3,0,0.5,0.2,0.5,0.5S27.3,50,27,50z"></path><path fill="#757373" d="M78.5,50H74c-0.3,0-0.5-0.2-0.5-0.5S73.7,49,74,49h4.5c0.3,0,0.5,0.2,0.5,0.5S78.8,50,78.5,50z"></path><path fill="#757373" d="M32.8,32.3c-0.1,0-0.3,0-0.4-0.1l-2.1-2.1c-0.2-0.2-0.2-0.5,0-0.7s0.5-0.2,0.7,0l2.1,2.1c0.2,0.2,0.2,0.5,0,0.7	C33.1,32.3,32.9,32.3,32.8,32.3z"></path><path fill="#757373" d="M70.3,69.8c-0.1,0-0.3,0-0.4-0.1l-2.1-2.1c-0.2-0.2-0.2-0.5,0-0.7s0.5-0.2,0.7,0l2.1,2.1c0.2,0.2,0.2,0.5,0,0.7	C70.6,69.8,70.4,69.8,70.3,69.8z"></path><path fill="#757373" d="M68.2,32.3c-0.1,0-0.3,0-0.4-0.1c-0.2-0.2-0.2-0.5,0-0.7l2.1-2.1c0.2-0.2,0.5-0.2,0.7,0s0.2,0.5,0,0.7l-2.1,2.1	C68.4,32.3,68.3,32.3,68.2,32.3z"></path><path fill="#757373" d="M30.7,69.8c-0.1,0-0.3,0-0.4-0.1c-0.2-0.2-0.2-0.5,0-0.7l2.1-2.1c0.2-0.2,0.5-0.2,0.7,0s0.2,0.5,0,0.7l-2.1,2.1	C31,69.8,30.8,69.8,30.7,69.8z"></path><path fill="#757373" d="M61.4,75.8c-0.2,0-0.4-0.1-0.5-0.3c-0.1-0.1-0.5-1.1-1.2-2.7c-0.1-0.3,0-0.5,0.3-0.7c0.2-0.1,0.5,0,0.7,0.3	c0.7,1.6,1.1,2.6,1.2,2.8c0.1,0.3,0,0.5-0.3,0.7C61.6,75.8,61.5,75.8,61.4,75.8z"></path><path fill="#757373" d="M40.7,27c-0.2,0-0.4-0.1-0.5-0.3c-0.7-1.7-1.2-2.7-1.2-2.7c-0.1-0.3,0-0.5,0.3-0.7c0.3-0.1,0.5,0,0.7,0.3	c0,0,0.4,1,1.2,2.8c0.1,0.3,0,0.5-0.3,0.7C40.9,27,40.8,27,40.7,27z"></path><path fill="#757373" d="M76.5,60.5c-0.1,0-0.1,0-0.2,0l-0.2-0.1c-0.4-0.2-1.3-0.5-2.6-1c-0.3-0.1-0.4-0.4-0.3-0.6	c0.1-0.3,0.4-0.4,0.6-0.3c1.3,0.5,2.2,0.9,2.6,1l0.2,0.1c0.3,0.1,0.4,0.4,0.3,0.7C76.8,60.4,76.7,60.5,76.5,60.5z"></path><path fill="#757373" d="M27.3,40.6c-0.1,0-0.1,0-0.2,0c-1.8-0.7-2.8-1.1-2.8-1.1c-0.3-0.1-0.4-0.4-0.3-0.7c0.1-0.3,0.4-0.4,0.7-0.3	c0,0,1,0.4,2.8,1.1c0.3,0.1,0.4,0.4,0.3,0.7C27.7,40.5,27.5,40.6,27.3,40.6z"></path><path fill="#757373" d="M73.5,40.2c-0.2,0-0.4-0.1-0.5-0.3c-0.1-0.3,0-0.5,0.3-0.7c1.6-0.7,2.6-1.1,2.8-1.2c0.3-0.1,0.5,0,0.7,0.3	c0.1,0.3,0,0.5-0.3,0.7c-0.1,0.1-1.1,0.5-2.7,1.2C73.7,40.2,73.6,40.2,73.5,40.2z"></path><path fill="#757373" d="M24.7,60.9c-0.2,0-0.4-0.1-0.5-0.3c-0.1-0.3,0-0.5,0.3-0.7c0,0,1-0.4,2.8-1.2c0.3-0.1,0.5,0,0.7,0.3	c0.1,0.3,0,0.5-0.3,0.7c-1.7,0.7-2.7,1.2-2.7,1.2C24.9,60.9,24.8,60.9,24.7,60.9z"></path><path fill="#757373" d="M59.9,26.8c-0.1,0-0.1,0-0.2,0c-0.3-0.1-0.4-0.4-0.3-0.6c0.5-1.3,0.9-2.2,1-2.6l0.1-0.2	c0.1-0.3,0.4-0.4,0.7-0.3c0.3,0.1,0.4,0.4,0.3,0.6l-0.1,0.2c-0.2,0.4-0.5,1.3-1,2.6C60.3,26.7,60.1,26.8,59.9,26.8z"></path><path fill="#757373" d="M40,76c-0.1,0-0.1,0-0.2,0c-0.3-0.1-0.4-0.4-0.3-0.7c0,0,0.4-1,1.1-2.8c0.1-0.3,0.4-0.4,0.7-0.3	c0.3,0.1,0.4,0.4,0.3,0.7c-0.7,1.8-1.1,2.8-1.1,2.8C40.4,75.8,40.2,76,40,76z"></path><path fill="#757373" d="M32.8,32.3c-0.1,0-0.3,0-0.4-0.1l-2.1-2.1c-0.2-0.2-0.2-0.5,0-0.7s0.5-0.2,0.7,0l2.1,2.1c0.2,0.2,0.2,0.5,0,0.7	C33.1,32.3,32.9,32.3,32.8,32.3z"></path><path fill="#757373" d="M70.3,69.8c-0.1,0-0.3,0-0.4-0.1l-2.1-2.1c-0.2-0.2-0.2-0.5,0-0.7s0.5-0.2,0.7,0l2.1,2.1c0.2,0.2,0.2,0.5,0,0.7	C70.6,69.8,70.4,69.8,70.3,69.8z"></path><path fill="#757373" d="M68.2,32.3c-0.1,0-0.3,0-0.4-0.1c-0.2-0.2-0.2-0.5,0-0.7l2.1-2.1c0.2-0.2,0.5-0.2,0.7,0s0.2,0.5,0,0.7l-2.1,2.1	C68.4,32.3,68.3,32.3,68.2,32.3z"></path><path fill="#757373" d="M30.7,69.8c-0.1,0-0.3,0-0.4-0.1c-0.2-0.2-0.2-0.5,0-0.7l2.1-2.1c0.2-0.2,0.5-0.2,0.7,0s0.2,0.5,0,0.7l-2.1,2.1	C31,69.8,30.8,69.8,30.7,69.8z"></path><path fill="#757373" d="M55.8,77.5c-0.2,0-0.4-0.2-0.5-0.4l-0.6-3c-0.1-0.3,0.1-0.5,0.4-0.6c0.3-0.1,0.5,0.1,0.6,0.4l0.6,3	C56.4,77.2,56.2,77.4,55.8,77.5C55.9,77.5,55.9,77.5,55.8,77.5z"></path><path fill="#757373" d="M45.7,25.5c-0.2,0-0.4-0.2-0.5-0.4l-0.6-3c-0.1-0.3,0.1-0.5,0.4-0.6c0.3,0,0.5,0.1,0.6,0.4l0.6,3	C46.3,25.2,46.1,25.5,45.7,25.5C45.8,25.5,45.8,25.5,45.7,25.5z"></path><path fill="#757373" d="M23.1,55.3c-0.2,0-0.5-0.2-0.5-0.4c-0.1-0.3,0.1-0.5,0.4-0.6l3-0.6c0.3-0.1,0.5,0.1,0.6,0.4	c0.1,0.3-0.1,0.5-0.4,0.6L23.1,55.3C23.1,55.3,23.1,55.3,23.1,55.3z"></path><path fill="#757373" d="M75,45.2c-0.2,0-0.4-0.2-0.5-0.4c-0.1-0.3,0.1-0.5,0.4-0.6l2.9-0.6c0.3-0.1,0.5,0.1,0.6,0.4	c0.1,0.3-0.1,0.5-0.4,0.6L75,45.2C75.1,45.2,75.1,45.2,75,45.2z"></path><path fill="#757373" d="M66.2,73.2c-0.2,0-0.3-0.1-0.4-0.2c-0.1-0.1-0.7-1-1.7-2.5c-0.2-0.2-0.1-0.5,0.1-0.7s0.5-0.1,0.7,0.1	c1,1.5,1.6,2.4,1.7,2.5c0.1,0.2,0.1,0.5-0.2,0.7C66.3,73.2,66.2,73.2,66.2,73.2z"></path><path fill="#757373" d="M36.5,29.3c-0.2,0-0.3-0.1-0.4-0.2c-1-1.6-1.7-2.5-1.7-2.5c-0.2-0.2-0.1-0.5,0.1-0.7c0.2-0.2,0.5-0.1,0.7,0.1	c0,0,0.6,0.9,1.7,2.5c0.2,0.2,0.1,0.5-0.1,0.7C36.7,29.2,36.6,29.3,36.5,29.3z"></path><path fill="#757373" d="M78,55.3C78,55.3,77.9,55.3,78,55.3l-0.3,0c-0.4-0.1-1.4-0.3-2.8-0.5c-0.3-0.1-0.4-0.3-0.4-0.6	c0.1-0.3,0.3-0.5,0.6-0.4c1.4,0.3,2.4,0.5,2.8,0.5l0.2,0c0.3,0.1,0.4,0.3,0.4,0.6C78.4,55.2,78.2,55.3,78,55.3z"></path><path fill="#757373" d="M26,45.2C25.9,45.2,25.9,45.2,26,45.2c-2-0.4-3-0.6-3-0.6c-0.3-0.1-0.4-0.3-0.4-0.6c0.1-0.3,0.3-0.4,0.6-0.4	c0,0,1.1,0.2,2.9,0.6c0.3,0.1,0.4,0.3,0.4,0.6C26.4,45.1,26.2,45.2,26,45.2z"></path><path fill="#757373" d="M71.2,36c-0.2,0-0.3-0.1-0.4-0.2c-0.2-0.2-0.1-0.5,0.1-0.7c1.5-1,2.4-1.6,2.5-1.7c0.2-0.1,0.5-0.1,0.7,0.2	s0.1,0.5-0.2,0.7c-0.1,0.1-1,0.7-2.5,1.7C71.4,36,71.3,36,71.2,36z"></path><path fill="#757373" d="M27.3,65.7c-0.2,0-0.3-0.1-0.4-0.2c-0.2-0.2-0.1-0.5,0.1-0.7c0,0,0.9-0.6,2.5-1.7c0.2-0.2,0.5-0.1,0.7,0.1	c0.2,0.2,0.1,0.5-0.1,0.7c-1.6,1-2.5,1.7-2.5,1.7C27.5,65.6,27.4,65.7,27.3,65.7z"></path><path fill="#757373" d="M55.3,25.5C55.2,25.5,55.2,25.5,55.3,25.5c-0.4-0.1-0.5-0.3-0.5-0.6c0.3-1.4,0.5-2.4,0.5-2.8l0-0.2	c0.1-0.3,0.3-0.4,0.6-0.4c0.3,0.1,0.4,0.3,0.4,0.6l0,0.2c-0.1,0.4-0.3,1.4-0.5,2.8C55.7,25.3,55.5,25.5,55.3,25.5z"></path><path fill="#757373" d="M45.2,77.5C45.1,77.5,45.1,77.5,45.2,77.5c-0.4-0.1-0.5-0.3-0.5-0.6c0,0,0.2-1.1,0.6-2.9	c0.1-0.3,0.3-0.4,0.6-0.4c0.3,0.1,0.4,0.3,0.4,0.6c-0.4,1.9-0.6,2.9-0.6,2.9C45.6,77.3,45.4,77.5,45.2,77.5z"></path><path fill="#757373" d="M29.8,36c-0.1,0-0.2,0-0.3-0.1L27,34.3c-0.2-0.2-0.3-0.5-0.1-0.7c0.2-0.2,0.5-0.3,0.7-0.1l2.5,1.7	c0.2,0.2,0.3,0.5,0.1,0.7C30.1,35.9,29.9,36,29.8,36z"></path><path fill="#757373" d="M73.7,65.7c-0.1,0-0.2,0-0.3-0.1l-2.5-1.7c-0.2-0.2-0.3-0.5-0.1-0.7s0.5-0.3,0.7-0.1l2.5,1.7	c0.2,0.2,0.3,0.5,0.1,0.7C74,65.6,73.9,65.7,73.7,65.7z"></path><path fill="#757373" d="M64.5,29.3c-0.1,0-0.2,0-0.3-0.1c-0.2-0.2-0.3-0.5-0.1-0.7l1.7-2.5c0.2-0.2,0.5-0.3,0.7-0.1	c0.2,0.2,0.3,0.5,0.1,0.7l-1.7,2.5C64.8,29.2,64.6,29.3,64.5,29.3z"></path><path fill="#757373" d="M34.8,73.2c-0.1,0-0.2,0-0.3-0.1c-0.2-0.2-0.3-0.5-0.1-0.7l1.7-2.5c0.2-0.2,0.5-0.3,0.7-0.1	c0.2,0.2,0.3,0.5,0.1,0.7L35.3,73C35.2,73.1,35,73.2,34.8,73.2z"></path>
</svg>
